<mxfile host="app.diagrams.net" agent="Mozilla/5.0 (Windows NT 10.0; Win64; x64) AppleWebKit/537.36 (KHTML, like Gecko) Chrome/136.0.0.0 Safari/537.36 Edg/136.0.0.0" version="27.0.5">
  <diagram name="Page-1" id="mwakuDwzGg8rqiFIS9BK">
    <mxGraphModel dx="1637" dy="468" grid="0" gridSize="10" guides="1" tooltips="0" connect="1" arrows="1" fold="1" page="0" pageScale="1" pageWidth="850" pageHeight="1100" math="0" shadow="0">
      <root>
        <mxCell id="0" />
        <mxCell id="1" parent="0" />
        <mxCell id="t9zuYAZWbqn-8ooPc9wu-18" style="edgeStyle=orthogonalEdgeStyle;rounded=0;orthogonalLoop=1;jettySize=auto;html=1;startArrow=blockThin;startFill=1;dashed=1;strokeColor=#007FFF;" edge="1" parent="1" source="t9zuYAZWbqn-8ooPc9wu-1" target="t9zuYAZWbqn-8ooPc9wu-4">
          <mxGeometry relative="1" as="geometry" />
        </mxCell>
        <mxCell id="t9zuYAZWbqn-8ooPc9wu-1" value="" style="image;aspect=fixed;html=1;points=[];align=center;fontSize=12;image=img/lib/azure2/app_services/App_Services.svg;" vertex="1" parent="1">
          <mxGeometry x="585" y="340" width="40" height="40" as="geometry" />
        </mxCell>
        <mxCell id="t9zuYAZWbqn-8ooPc9wu-2" value="VIM BOT AppService" style="text;strokeColor=none;align=center;fillColor=none;html=1;verticalAlign=middle;whiteSpace=wrap;rounded=0;" vertex="1" parent="1">
          <mxGeometry x="530" y="400" width="170" height="30" as="geometry" />
        </mxCell>
        <mxCell id="t9zuYAZWbqn-8ooPc9wu-30" style="edgeStyle=orthogonalEdgeStyle;rounded=0;orthogonalLoop=1;jettySize=auto;html=1;entryX=1;entryY=0.5;entryDx=0;entryDy=0;dashed=1;strokeColor=#007FFF;startArrow=blockThin;startFill=1;" edge="1" parent="1" source="t9zuYAZWbqn-8ooPc9wu-4" target="t9zuYAZWbqn-8ooPc9wu-16">
          <mxGeometry relative="1" as="geometry">
            <Array as="points">
              <mxPoint x="230" y="200" />
              <mxPoint x="230" y="270" />
            </Array>
          </mxGeometry>
        </mxCell>
        <mxCell id="t9zuYAZWbqn-8ooPc9wu-4" value="" style="image;aspect=fixed;html=1;points=[];align=center;fontSize=12;image=img/lib/azure2/iot/Function_Apps.svg;" vertex="1" parent="1">
          <mxGeometry x="582.3299999999999" y="180" width="45.33" height="40" as="geometry" />
        </mxCell>
        <mxCell id="t9zuYAZWbqn-8ooPc9wu-5" value="VIM Function App" style="text;strokeColor=none;align=center;fillColor=none;html=1;verticalAlign=middle;whiteSpace=wrap;rounded=0;" vertex="1" parent="1">
          <mxGeometry x="530" y="220" width="170" height="30" as="geometry" />
        </mxCell>
        <mxCell id="t9zuYAZWbqn-8ooPc9wu-19" style="edgeStyle=orthogonalEdgeStyle;rounded=0;orthogonalLoop=1;jettySize=auto;html=1;startArrow=blockThin;startFill=1;dashed=1;strokeColor=#007FFF;" edge="1" parent="1" source="t9zuYAZWbqn-8ooPc9wu-6" target="t9zuYAZWbqn-8ooPc9wu-1">
          <mxGeometry relative="1" as="geometry" />
        </mxCell>
        <mxCell id="t9zuYAZWbqn-8ooPc9wu-6" value="" style="image;aspect=fixed;html=1;points=[];align=center;fontSize=12;image=img/lib/azure2/ai_machine_learning/Bot_Services.svg;" vertex="1" parent="1">
          <mxGeometry x="340" y="338" width="44" height="44" as="geometry" />
        </mxCell>
        <mxCell id="t9zuYAZWbqn-8ooPc9wu-7" value="VIM BOT" style="text;strokeColor=none;align=center;fillColor=none;html=1;verticalAlign=middle;whiteSpace=wrap;rounded=0;" vertex="1" parent="1">
          <mxGeometry x="270" y="410" width="170" height="30" as="geometry" />
        </mxCell>
        <mxCell id="t9zuYAZWbqn-8ooPc9wu-10" value="" style="image;aspect=fixed;html=1;points=[];align=center;fontSize=12;image=img/lib/azure2/app_services/App_Service_Environments.svg;" vertex="1" parent="1">
          <mxGeometry x="530" y="120" width="30" height="30" as="geometry" />
        </mxCell>
        <mxCell id="t9zuYAZWbqn-8ooPc9wu-11" value="ASE" style="text;strokeColor=none;align=center;fillColor=none;html=1;verticalAlign=middle;whiteSpace=wrap;rounded=0;" vertex="1" parent="1">
          <mxGeometry x="460" y="150" width="170" height="30" as="geometry" />
        </mxCell>
        <mxCell id="t9zuYAZWbqn-8ooPc9wu-28" style="edgeStyle=orthogonalEdgeStyle;rounded=0;orthogonalLoop=1;jettySize=auto;html=1;strokeColor=#007FFF;startArrow=blockThin;startFill=1;dashed=1;" edge="1" parent="1" source="t9zuYAZWbqn-8ooPc9wu-13">
          <mxGeometry relative="1" as="geometry">
            <mxPoint x="590" y="210" as="targetPoint" />
          </mxGeometry>
        </mxCell>
        <mxCell id="t9zuYAZWbqn-8ooPc9wu-13" value="" style="shape=image;verticalLabelPosition=bottom;labelBackgroundColor=default;verticalAlign=top;aspect=fixed;imageAspect=0;image=data:image/jpeg,/9j/4AAQSkZJRgABAQAAAQABAAD/2wCEAAMDAwMDAwQEBAQFBQUFBQcHBgYHBwsICQgJCAsRCwwLCwwLEQ8SDw4PEg8bFRMTFRsfGhkaHyYiIiYwLTA+PlQBAwMDAwMDBAQEBAUFBQUFBwcGBgcHCwgJCAkICxELDAsLDAsRDxIPDg8SDxsVExMVGx8aGRofJiIiJjAtMD4+VP/CABEIATwBMwMBIgACEQEDEQH/xAAdAAEBAAEFAQEAAAAAAAAAAAAAAQIFBgcICQQD/9oACAEBAAAAAPVGIQyTDj7q1wRwvpl17mnn/tJu61UixlMrIhDLDYnQDrJilJfq7ad9NzWpFjKZWRCE6tecWk0Fxpuj0355tkWMplZEIdNvPGALjVx+r087KWRYymVkQk62eXuIBcauLUfWjl/KLGUysiDa/jht0AXGrjXI/sJ90WMplZEMfPXplUAXGrjT0J7nljKZWRDRfFPTKgC41cab89mP0WMplZEOq3mPKgC39rcaT125jWMpldI2wR0J6kqIsx+P9n3fTcar0B7rLGUyvifo9hQAaJxtvT7vuY1Z299G1jKZXw5ICiLDiTWNw/dJR2k9NFjKZXw5ICiLDibVdxfdM9y6/q/1fTvfkznfmj9cplfDqINa5n3i2zxJs+WLxLqu4vt3Vvf6VQb+7q8tXO+HUR+3fXt9++TDPw/iLxLqu5eUdyShBl297W/pfDuI7391MeBuGf25G5/8VIi8S6tzPvGyhFidxe1Wfh3E/L2d3X1b84KmvaFLF4k5B5b1RKEWLl6K8s+HcT8vZ3dfCflv8FQsOLeXN8aolCLFchelfh9Ed9+5bY/TrqtoYsNjcjb11RKEWKx506cxH1egXbP9GldQ+kujrF2rvbeuqJQixVvFMQcndxO0GpY8X+UWlWG2N6b11RKEWKuPFkQG6O/3Zx57dRrDbG9N66olCLFWcVxJ+mAe2Op9MehSG2N5721RKEWKs4rifh6qdU+BNp/V2h9Hb57dRkPi33ua2UIsVZxXE/H2q1+fB9H04cc+TWk2H18ock/tsXQ8gixVx4siY9vew3Iu4MNh8AdM9DWH18oclatdmbLoixU5G6zRBMLmFh9fKHJWrWbG2lSLFbm9QvEOICiLD6+UOStWsx4q+EixcO+nP/h3EBRFifRypyVq1jbGwSLDsX3h/XoXsNAZOD9mBPi3ByxyPq1l+fiEizHsF3o/fLAgLh5CcRJV1PcvKW8dXsriX40NS7h9l7+lkQhlj5a7OBi3jvv6kribTvz+nkjnjshrmUysiEMvz86uOAMuRNQqXDu3l+m5f0sZTKyIQyw6lcJSov3/AGKl+7vvkLGUysiEK4z6hFhYqOY+0uUixlMrIhDJ+PTLZFRUVP17q7vsixlMrIhDJhs7pv8AEioqdjueskixlMrIhDJi466n6bFRXP8A2HyqRYymVkQhkjHQeuPE+CzHeHY/kj9FSLGUyoxBkiPz0XhTgTLfvY3eP7zJUkplK//EABwBAQABBQEBAAAAAAAAAAAAAAAFAQMEBgcCCP/aAAoCAhADEAAAAAArbltFk9NyoRXEnYvdIvdqewAAC7hbLxvLgwCrB2LWuw+MoAAK+Np4nlwIABg7NrHZlQACT0rYuTgAArrXYI/bAD1Yr4Nh5Vn60Ar5uerPrHCM3HXeuAG8/MtbYrUAYO1erF6MDEndV7gAb38wqnm5izRkw3u0YWxLmRDXsC7iPONMRO8wPUbeUb38wq4sxqndLmFWkjqE/wAwMHYvdJHUfXgClMaZ036BsSm9/MKsH0mH3/cvnr1b83vVowthyozLgQAI3a9O+gd7+YlcWZ1PutzEmeeS+hevBiTWTH5UKAAYex3ItU8X4jfILpsppex8jMeYvYOVCgAFfONIq4WwXcO9Ha713Gltt4SY8vfwMmHAAFMeQVit317q3jIvR2x8jkNXLMlmw2TEWMunsAoxpn1iq0K1KAWZLNhsuDp7xs9UDA2TS/ofbuDerIHqzcxBWzMSWqZcGWsy1fCxI6Z9A402BUpJahO87D1iyepZEUW8izl2suK3jXOs2ZEACW0bbeJCimVEvJrXWta654yVQAAu4PRPli5iAFPWg/TGDswAAApNc/3LgdfAUax2LWuvAAAAGdrWzcfmtCjNu1fsMZuSoAH/xAAzEAAABQMDAgQFBAIDAQAAAAABAgMEBQAGEAcRQQggFCEwMRITMzQ1FRgiMhYXIyQ2Uf/aAAgBAQABCAChwOOaHtGh/wDlXpqpYFgAYJ66estAgqI2vN9S+sk0JwCVlpOcdHdSYbh7VA3PcVsOAcwsD1R6wQwkBxavWPAPBTRue1b7s+92ouLeIICA7YHI++eMDkcjgcc0PZ8Q1fmpdnabRxXtwaj9Ud83eKrOBOodQ5zn8x7txremL59GO0njHTfq0uSCFFjeFq3hbd6xaUpA79g++eMDkcjgcc0OOKE3tWtnUZGWAZzBW9OTszcso4lJj1LPvW5rDmSS0Bo3rrbuqTUGam++R988YHI5HA45ocCPlXUP1BKWyZzaVpGMYwiI0PqsXz2Let3zHQTXVvqUyCHmMD754wORyOBxzQ0NdQ2soabQZYqJOYxjCY2B9aKlJOEk2kjGaM6rMNVLUI/7eMDkcjgcc0NXjdcXZFsydwSd3XTLXtckjPy2R9YfatKtRn2mF5NJtGPftJNm2es+c8YHI5HA45oR2GurzUM0jPMbLZ9g+sNb7V0h6hHkoV9ZT3ffPGByORwOOauGcZW1BSky9mpd/cEw/lpDsH1hxpfeKtg3/BTwJnKYhTFDHGByORwOOa6ubqCC0ySiiGcpiNeITrxCdeITrxCdC4TrxCdeITrxCdeITrxCdeITrxCdFWTN3DgxAOAlHQK5xuzSS2nqoY4wORxJTcVCogvJjqjpvz/tDTah1R02r/aOm1f7R02rq5vCNu26bdZQvhl68MvXhl68MvXhl68MvXhl68MvXhl68MvR0FiBuPi2xR2EDFMG5dgEd6QUExRAewc9GU0Ze3brhTBjjA5HE9OS9zSaslMCAVsFbBWwVsFb7e3pzEMjJJCIIOl2iu5EFiOkSrFbfUoewcDXRo+Mjflxss8YHI45ocD6I9wDtUyUpJZ6BYQRFqYKbfUoe3cK8q6PxH/bjwAAccVvQ5HI4H0R7gqb/Lv6g/tVKbfUoaGkUVXCgJpNbUfKgAroWvEpf3Tjo9LzJ8tMPIGbp1HL/PZRuqeo0SIeGhOpW8WQkLLWvrxYVximi4IoRQhTkyORwPZA21cd1qilAxPTBrBJgBlkuj6/Tl3UU6Pr8KG6cn0satMCiZC4NPL8tQBNNCG3aFTf5d/UH9qpTb6le41F2yq4AFnjZq2aJ/LQAKEMD2DVm6mXfYxyFjdPdYLcv4CtSgYRreuMjgcNmzp86QaNNLelaKj0UJS+2jJowbJNWu2w15YENxr4aNtv2hU3+Xf1B/aqUyTUWXBNOGgU48AWXHI55zxghzpKEUJpLrmL47aBukBAaEfLI4HHSlpq3Qilb6kKH3q7+o/TG0llWpXfWWTcQatustqJwB1B9VGlkqYpHkNOw1xMivYkfce0Km/y7+oMBM2OAWvEFYbqq8dg557hADAIDoVq0rIiha08A7hW44HA0ucU0FThY8ShA2XbsYhXVbeEjbtksIhj5bAHZbtz3BaMkWRgxER37Qqb/MP60+YAdFd4oy+qbtHPPeQ6iShFEtI9QSX/AGuRdcMDgaXIKiCpQseVRnLMt6SRrXbTBbU+0CtWMpFyMJIrx0l6UkgLieeJhaBCpx6xSsvqm7Rzz3jWll5nsa8mT45RExQEKHA46UtSGjqFPZL7fF56c2ff7QG9wXt0jzjAVHNoXBbVx2o98FO+gKG0vIr1an2S1Mvqm7Rzz3jQgBgEBh+oG7ouKZMTUOBwxfPIx43estK+p6DnkUIu8ETkUTKcm/lXuFS0NEzrFVjJ6jdJ8Y9BV7ZM/b81a8svFTPbxS4ADlfa1PsVqZfVN2jnn0Br+eBwOfLz3sPWC/dOzFTibI6r7PmhTb3LHykbLsknsftQ7VqjphBanW8qxeTkNJ27LvYmT7XP3S1Wp9itTL6pu0c8+jsGBwPb5hVq3pdVkPvGW/o31FsL9XQg573oQ8q6u7YSjbthp5IO1z90tVqfYrUy+qbtHPPo7YHA0IgAbidNVJQ6ag9gunDHZ23hnK72KYuVx9q6yAKMHaPc6+6Wq1B/6K9Mh/5DVx2Dnn0d8DgadDs1WqY0bsbUm1YNSUu3pRv6HOZSBm7LvC21DElzOG5fIWaS0isVBjpN02XTPS7GSu4nlRh8hrq+uZJ/dkJAJdp4kixzHq0LbcLR7oySUPJNlDiet8jnn0xwNOftlqtb/wAxB5cRUa6MBl2zRqzT+W32ow7ANamamQGmNunk5Gem5G5Jl9MSXZxRP6lqxfxzuozyXNT2JYPwEVZSCdx4CoAYHPPpjgaOUDkEo2R1ZzcI0asJ+G6ndI5UhfnsdUtN5MAFoS5rcVJ8ZF7stdqT415rXfSWCKfxF5dXqHyVELRuO5Z67pZaVm+3ii/1LVi/jndRn1T1xict8NjOWfZz3jiH0pvWZi2kilQ4HsECm9/lJV8pMPb0OKL/AFLVi/jndRn1j9lyRHyRF6hnnvGrLtVe97qjYJNBBNsgkijQ4H0R7uKL/UtWL+Od1GfWP2HIRUhiHk2Qx71RDPPec5Eyic2g2nKlo28eVkg9sDgfRHuEQABEW5hOimarF/HO6jPrH7bqaAqzI5DHPcNaEaUnuJ4hdMyACFB7VeXSFJg+OraI9J2rPP7TtWKHpO1Yr9p+rFftO1Yoek/Viv2n6sV+0/Viv2nasV+07Vir8tOU05uI8DMeORrxyNeORrxyNC+RoXyQDS7o6wbA3KKaCRRsdMxIxwYYz6x+10gDlssiIhsI457TmKQomNpNom7us6E3cSKKSKZE0tsfCNCBq/lQ/FX8q/lvQ/FX8q/lX8qH4tq18VfzOsl5OaGPf1+nP6/T39fp7+v09+FBHSAm2BpCvAMCizaLXUMHzLdIUjI5Sxn1Tj2h5DUin8l+6TwPvn3CoWGmLkkCx8Npv09R8GojK3QBBANqAK4yOBxzQ9nluFaiCoF/3SB9xr4hr4hrca+Ia+Ia3HFuFFRqoUrZv8hLYezfbep5dFOZegYFkhDcDuW5DfyakWfqAkyhNHNS58SCja/THGoCVe5oS34S22BWETkcjgcc0PYPtWrscDDUu5UxFMlCmSgTJXyyUKZK+WSgSJRUCnOBCxbErBmVLuUMBEzmG3IZkFpwrN4exLKVP8aiNl2g2NugkgigQCJbVx2jkcDjmh7BDetdrUanulrKm/x5hX+PMKC3mFf48wobeYV/jzCgt5hTWPaMh3R7ouPPLyjGPKmUpSAUu1c54wORyOBxzQ9mw1qvBGmbUXUS9wxtW1bVtQB6GjEGZ/cDiWOXA++eMDkcjgcc0PaoUDAIGv21jWrPKtyeoigu5WSQb2bbiVqwDaNKGB988YHI5HA45oe0fKrytNrdsOdqeSYPYp6uze+kIgmUTG0msNRkUtwym2R988YHI5HA45oe0Q3oQ8qvuxGN2tgOWViJGDfKsn/oCO21ae6VnFVCXuEC7dg++eMDkcjgcc0PcNbVPW1EXK0FtI3PpFcEQc60YqmoiqZJXzrzx50YxSF+I1vWLdFzmILSz9MoW1jFdmKTbA5H3zxgcjjajBtW1CFbVt5jQh51t5Vt5VtW1CHnQhQh50AUbzNUvAQk0QCyN+6b2zBxh3zEhCmKIiZMoANaf2nGXS/BB9Eaf2fAnA7QADbegD3ratqEK2rahDzoAratvKtqEPOtqEPOtq2r/8QASxAAAQMCAgQHCwgIBQUAAAAAAQACAwQRBTESIUFRBhBSYXGBkRMUICIwMkBCU5KhM1RicpOUwtMjJHOVsbLB0hU0Q7PRJVVjoqP/2gAIAQEACT8AKKKKKKKKKKKPFjtNTTht20jLzVLri4tEy7hfeVwadLuqsSl0B1Qw/wBXLHxh0Tv9OhpoobdDyHvVZPWTuNzLM8ucVq4sUrMPmHrwSaCxOkxaJvqVtKwn7SLublgNVQO21NE8VMXXG7ReFjNJiLWC72RO/Sx/XjdZ7esIooooooooooooooolBBBBBBBBBDixBsJkB7hSxjTqai3so/xGzQtLg7hp9g+9XKPpzer0MTnPe9xc97iS5xOskk6yfI1M1LUxG8c8Mjo5GH6LmkEKA4xRZGujDW1kY3uGpsvwcsRhrqWT1482O2skabFjhucOIIIIIIIIIIIIIFFFFFFFFFFXQgxHH23ZM93j09Afp8uX6Gzaq6eurag3lqJnaTnbhuDRsA1DytfJSVAsJAPGinbyJmHU9qDcPx6GIuqKAuuJA3OSBx89m8ZtRKJRRRRRRRRRRRKCCCCCCCHFVWxaxZiOIxkHvLfDEfbb3eorkkkknWSTtPl6malqqaQSwTxOLHxvbk5pGRRip+EVJDd7RZrKyNuc0Q2HlsQQQQQQQQQQQQKKKKKKKPFLbhDisTu4uGdHAdRqPrHKNOLnOJLnEkkkm5JJzJ9BqpKWto5mzU88fnRvbkR/UHUQgyDE6UtixOkblHLbU9n/AI5M2cRRRRRRRRRRKCCCCCCCcRS0EBkc0edI86mRs+k9xACk7pWV85kftawZMjZ9Bg1D0PTkpTaDEqcf61M86+l7POYpWz01VAyaGVmtr2SDSa4HcQUEEEEEEEEECiiiiiiiVJ+r4WGVVfY+fVStuxh/ZsN+v0Wa8+EDvjD75upJXWcwfsnlEooooooooolBBBBBBG1PhtHNVS87Yml1hznJP06uvqpamd305XFx6hkPRXkQ09UIqsb6Wf8ARzDqBv1Ihwc0EEZEEXBQQQQQQQQQKKKKKKKfaXHcSjgI2mCn/Tv+IAV1fsV+xX7FfsV+xX7FfsV+xX7FfsV+xX7EbdPkBcHURzJ+lUQUxoqk7TJRnuJPWACiiiiiiiiiViFHQxONg+pmZA09BeQuGHB794wf3Lhjwe/eMH9y4YcHv3jB/cuGHB794wf3Lhhwe/eMH9yxCnxGjw/DJZXy00rZoxNVSaxdm0NjCjf2KN3Yo3dijd2KN3Yo3dijd2KN3Yo3dijd2KN1uhSsvuLgEQRxZjyB/wAniUFWwbm1UWgfjEgggggggggVWz19ZMbvnndpu6BsaBsA1BAIBAIBAIDyjQJ2i7H21uO5yJFna27DbYvWzG4rd5DKqwNknXTzj8xFFFFFFFFE+iCwE7/4rZIVu8MhHUeDVbfqng8EIIIIH0T5w9e0W7jY57z6rRcqRsA3ee74ak2SY3zc63wbZUkLTv0AmMA+qFPLSzaJb3WF5ifonMaTLG2rJcJ8SIB8yaTvhvZKHKhoMSj2lrTSynrZdvwVS/Cap1gIqyzWE80ou3tsnhzXNBa4awQdoRRRRRPkMHr8UcHWJpYHSMb9aTzR1lYfh2GtPzutaXdkAkXCDAmHcGTvXCHA3ncWTsUOE4hbZT1ug49UzWLg3idHG3OZ0Bki+0i0m+H84evaLdxaUTDrDPXPTuUTY28wz6T5GuL6QHxqGe8kDuhubDztR7wxQDx6GY6322wvyeObPjCB8KCWpqamVsUEETdKSWR5sGtG0lCLEq4gPZhjHXpKfcJPbPHuKCKngiaGxxRMDGNA2BosAOIjjysdS3nwvnD17RNLnu1NaMyVoyVBy2tj+rz8/lHOY9jg5rmmzmuGsEEZEKYCocRHSYgdQlOQZNuedjtvESifCga+qrTJBhVx8jTMJY+Uc8rh7qCCrpcYq4yQ6HDmCVrSNjpnEMXAvxb5zYlrPU2JcC5mM3w4iHnsdE1PxHCHnbVU2nH78JesQpK+mcDaanlbK29siW5Fc/hfOHoEkyagmg1D2a9ugDsH9fLC4IsQVUF9UG2w6qkOuZrR8i87XtHmnaOJp8HNsbiOkBACOlwmjibb6MQRUr4XY9VSxVErDY97QNDnsv8ATLgD4OJVGH1Lc3wutpjkyNOp7eZy2k+F84evUm0Yhz2F3Lk+XkfFJG4PZIw2cxzTdrmnYQdYTmDE6K0NewC13gapQOTIE7wczG4DsTg5lXhVJK230oggnRx4rQT980DpDZr3WLXxOOwPG3YVSTUdbTutNTTN0ZGdI3HYRqPk9tS+53C6yE1gNwDQuT6A8iiqCKavGzuMh1P6Y3a+i6FwRcHwpdCroDJNh1z8tTvJe9g54ifd48Khq9C4in1sniv7OVlnNWKsr4sxRVpEU45mTDxHdYCwqrw2oN7NqIywP+o/zXjnaT5HM1D2jtuV7c/yhcn0AXBFiEzuhpKeODuhbcvEQ0Q7r8KokpqqllbLBPEdF8b25OaU6HC8S1MbXZUlQd7vYv6fFRa5rwHNc0ggg5EHjoqetpZhZ8E8bZWHqcqrvCfM4dUvL6d/7N+t0fXcKgmoayDz4ZRrscnNI1OadjhceGM5Xk9JK9uf5QuT6TiZfRB13YfUgzUx6G5s6WEKkmwOoy74beopT0kDTYqyCspZheOeCRssbuhzSRxsZFXRMcaCuA8enl/qx2T2qEw1lDO+GePOz2bjtBzB2jwvaFe3P8oXJ9BJ8iVitRQSEgyNjdeOXmkjddrusKGHDsbfcQFn+XrLbGX1sk+hxsDf8XoHxT22y0ZADutjh4XtCvbn+ULk+jGwAUb45GanxvaWuaSL62nWPBlfFPTObNDKw2cySI6bXDnBCZ3OaalhkkZyXvYHOHUSirX7/rOzuTfC9oV7f8IXJ9G9k/8AgqIxVzMIo2xYjTHuVQy0LdROTxzOBCqaTHKfYwuFLU9bX+Iepy4PYtREZulpJND32gtKlYDuLgFTz1szjZsVNG6Z5J3NjBKoTheDQSNnNHOR3zWFhu1hYPk4+VfWeMhxwmifNPzS1hBDepjAfCmILzpW0QVPGbVNrEEeoFTuLQzzmeOM+b0b2bv4L/tdH/st46OmlI2via7+IUMULc9GNgYOwWR4ntlqpWubQUINpKqUbANjG5vdsU3dqyuqHzzvyBc/YBsAyA2Dw/nX4AuQogH7JG6nK8sI9doy+sNnlw7wciLFYJT4hT08TImT0j+95wxgsLsddjlidVhjz6lZSP8A5ou6NXC7ApL7O/omHscQVjOGObvFXEfxLHcKiZyn1kLR8XLhVQzvA+To9Ksd/wDEOCwR7pSLCtxGwa3nbAwm/WVXzV1bN500pyGxrQLBrRsaNXkPnX4AuRxBNyuXwj4lv9R5ajIiq4mzRXafk5NbD1jwhxAHp1pjPdCY33R5P51+ALkIoopviO+VaPVJ9Ycx8pfudRJp1bxnHSx65XdY8Uc5TGsjiY1jGAABrWiwA9F+dfgC5CCCCYHNc0gg7QVew1sO9py8kbNAuSoSzFsWax8jHCzqeAa44ena9D0PILMtXzr8AXIRRRRXnQus7na7/g+Sg/6ZTP08OgeNVVMw6piNsbPU3nicsZpjSvJLKTEC9r4+YTMDtLrCkwD77J+UpcA++yflKXAPvsn5SlwD77J+UpcA++yflKXAPvsn5SlwD77J+UpcA++yflKXAPvsn5SlwD77J+UpKaStipoZpRSvMjGCYXa0lwZrsg/sQf2IP7EH9iD+xNcUNFqzDBdZPqSR0BoC5CCCCCHykbm9ZGryBAAFyTqACgfT4NqfBSPBbJW7i4Zth+L0wMZG0NYxosGgCwAGwBAoHiKKKKKKKKPFTzPazEjTsIjOVNG2L8KpZ/syqWf7Mqln+zKpZ/syqWf7Mqknv+zKhk1HxW2N+tAxsB1g5lCwbJYDcA1chFFFHiyZPIB2+FQz19Uc44RcMHKkcbNY3ncU6HEa9ha+Gkbrpadw2m/yrxvOpauIolBBBBBBBBBBb1n/AI1W/wC4fIi57tkOhec7W5BBBDikY0mZxsSBn0p7PeCmjHS4KCeqkOTKeJ8x/wDQFYDLRxO/1q94ph7hu/4LFZK47aOkBp4eh0nnu6rLD6eipmZRwsDATvO885QQQQQKKKKKKKKKKPExvj1vdstk7Gyf1TGdiYzsTGdiYzsTGdiYzsTGdijaXONgAMygA/W55G1xRRRRRRyaSqSCbuWHU7HNlja/WGDlArg5g7jvNFD/AGrg/hMR3so4h+FMZG0bGgNHw4iiiiiiiUEEEEEEEEEFtQeBW0TWOLSBd9OdH+BCM3vIze8jN7yM3vIze8jN7y7t7yis7a863dpQQQQQQQuauqiiP1XO8Y9QuhqaAANwA1IFBBBBBBBBBAoooooooooo8TNKfD3d8stmWDVIOzWj4ZRRRRRRTbxYdEY4zsM0w/CziKKKKKKKKKKJQQQQQQQQQQQTQQRYg7U0mlnvLSO2aBOtnSw6kEEEEEEEEEEEFEZZ5pGxxRjN73GwCeHSNBfPJ7SV+tzujYOIIIIIIIIIIIFFFFFFFFFFFHiIZMw6dNNtY/8A4ORUJhngdoyMOw7xvB2FFFFFFFFFFFODQBckm1gotGeVn6lC4a4o3ZyEbHv+A4iiiiiiiiiiiiUEEEEEEEEEEECgrQV8TSIZ9h26Dxtaqd0M7NhycOU0+s3nQQQQQQQ4gSSQAALkk5AAZlQW0CH0tA7YRk+bnGxuxAoIIIIIIIIIIIIFFFFFFFFFFFFFHipmytGtj8nxnex2YKviVNyQQJmjnbk7pCa+ORp8Zj2ljh0tNjxFFXTwBvJsqMw05zqqgGOO29ozf1L9cxAD/MyDzL5iNmTeIooooooooooooon0DcsPp6obDIwEjoOYTamJ99TDMXsHvXK38T6hrLE/on6B1BYVAZW6xNLeaS42hz729C//xAAwEQACAQMBBgUDBAMBAAAAAAABAgMABBEhBRASIDFRExQwMkEiYXEzUlORBiSBgv/aAAgBAgEBPwDlVWc4UEmoNlO4BlbhB+B1qKwtYuiAnudaAx2ogMMEA1LYWsg/TAPcVPsuVATGeIdvmiCpwRg9vUhheeQIg/J7Va2kdsgxq3y3Pd2UdwpI0fvUsbwuUcYI9IAkgDqas7ZbaLGBxN7j6N9aC4iJA+tRoa/Po7Lg8SYuRonpfIraMHhTkjo+vMEc9FJrw5P2n+q8OT9p/qtnI0VsuhBY61xNXE1cTVxNXE1CT7ig2eTaqBoA3yrcyqFACgKPgCte9a9+e7UKVYaGozkA/bkvgDaTfgeizqgyxAFNf2inBlWlv7Rj+qtI6SDKsDvvPYKh9opQW6UsIxrQUDoK4QdDUllaSD6oVP3Ghq52KOsD/wDlqkikhcq6lTy3dyLWEuevQCpriW4bikYk1HZXUgysLYNPYXae6Fq2NxKZwcgjh033nsFW68QFAAc11aR3acLj6vhvkVcW8ltKY3HToe45NtZ4Yu2TVoyJcRM/tDDNAqV4gwIPTG7hXizjXvvux9I/OKtlCovobTtPMwEqPrTVeS7txcwlOh6g1PBLA/BIpFQXlxbn6HOO3xVvteN9JhwHuNRSsrqGU5B33IyB/dW/tHonZtmTnw+R40kUq6hge9T7HQ5MLEHsalikgfgdcGtlXLiYwn2sNN9z0FW/tHo8b77q8W1ZOIZDZ17VDdW82OGRTRYAZJxW1riKZ0VCGKjVq2ajNfREfGd9wMgVCCEHo8Ldt+1LWa4SMxrnhJzTQzJ7o2H/ACsP2NRWlzL7Y2/7pVjZLarxHWQ9T23zewVb/pp+KZA1FSp5zfWoJHHvwN+TjGeSb2Crf9NPxuIBGDzbQuhaW5YH620Wsml2haMoPiAfY1560/lWvPWn8q1560/lWvPWn8q0l3bSHCyKTjNeLH3rxY+9eLH3p5A+g6Vb/pp+N8vweS4uI7aMvIQOw71dXb3cpdhgD2jsOXO7ZUQkmf7JXlh3ryw715YUsQSoRlRvl6LukmiiGXdF/Jq521BGMQgu3c6AVPcS3L8UjZ7D4HobGP8AucOfepFCF68F68F/tQhbOuMUAFGBv/yGXHgRg66tXiSfvb+/TglaCZJF6qwNQzJPEsi9GGeYkAEk4AraN15q6dx7c8K/gersnaXlG8KXWJj/AEaRldQynIPQ9+TI76d62ttUODbwNp0dh8/b17PaNzZaRtlP2HpVntmO5YRtGyse2o3Xu04rLQozNjQfFXe2Lq8BTPBH+0ej/8QAQBEAAgEDAQMFCwsEAwEAAAAAAQIDAAQFEQYSMRAgIUFRExQiMEJSYXGBkZIHFRYjMjM0U1RysSRDYsFzodEl/9oACAEDAQE/AObLNFBGzyuERRqzMdAKyW28EOqWMXdT1SN0J7BV1tLmrs+HdOg82M7g/wCqdmdizEkniSSaSSSNgyMVYcCDpVptPmrQjS5Mg7JPCrF7a2lwVjvI+4OfLB1Q/wCxSSJIoZGDKeBHSPGZDIW2MtmuJ20UcB1sewVmM7eZeXV2KRD7ESnUL6+fg9obrESgamSAnwo//Ks7yC/t0ngbeR/FSOsaM7sFVRqT2AVn8zJl7wsCVhQkRJ2Dt9Z8Ts1m3xV2Ec/08rASDs/ypWDAEdIPA+J21yRtbBLVG8O4J3vQi8aJ18SCARrw662QyRvcYInbWS3O6fSDwPOkubeJt2SVEbsLAGu/rL9TF8Yrv6y/URfGK2quobzLyaOrJEoRSDr6a3IPOFbkHnCtyDzhW5B5wrch84UbXdGpUgdtSQgDVeZsTdGLLND1TRMPavTznleVy7sXYnUsTqSeZqa1NamtTWprA3DzLJBL4SgDTWrtO5ySqOAPRzNmmK5yz065NPeOcOWOGaZwkaM7dijWodmM9MAVsZQD5w3f5qXZfPxDU2Mp/bo38VNbz27bksbI3YwI5dnvv5f+IVkPxE3rp3WMAsQKkvWJ0RdKaWV+Lt76V3UhgzBhwINWu0WcsiDBfzADyWcsPcaxHyjSh1jyUAKn+7HxHrU1ZX1rkYFntpVljbgw/wB9nKOTBYiTNZBLZTurpvO3mqKx+LscXAI7aEIOs9Z9Zq72kwdk5Sa9j3hxCguR7tag2mwNyQEvogT1Nqn818ojBo8cykEHup1HXw5dnvv5f+IVlpVhlnJ469A9lSSNK283OwubvMJdCaBtVOgeM8HHprE5a1zNnHdW51VuKnip6weQcnydhDNfeduJWciup8TeRW2vdXiIXSnjdXKsCGBIIPQdeQzSMgjZ2ZFOqgnoB7dOXZ86TTHsiFZiQyXM59PiNkc62GyaB2/p7ghJR5vY3s5ByYLLyYW/S5UFk+zIo61NY/JWWUgEtrKrr1jyl9YrJ4DF5Ua3EALn+4vQ1ZXYO7tw0llJ3dPMI0cVJG8TlHUqy9BB6COXDMQ83pQCsn99P6/ErtVnEUKJ26ABQ5ba7ubOUSwSvE/ap0rF7fXURVL+ISr+YnQ3tHA1YZC0ydus9tKHQ+8HsNbdYeGSy+cEQCWIgSED7Sk6e8cuI+9k/aKyf38/r8TvmhyYXATZyK57jIqyQgEK3BtavcJlMexE9rKunlaaj3ihG7EBUY69QHTWw2NvrKC5luFeNZWG4jDQ9HlaVthMkOz92GOhk3UX1k68uIIEsmp8kVknQ3NwN7r8Tur/AJe6hybF5iwxU1wLuQxiUKFbQkdFQ5TG3Q+pvIH9Ui0HtlO8GjHp3hV7tBhrBSZryLUeSp3ifdW0m0kmcmRUUx28ZJRTxJ7W5cb9437RWW/E3HrH8UkrpwNI4cc9cBlXVWFvJoQCOihy6ntos58o83G/eN+0VlvxNx6x/HIj7ja0PCGvN2WwkmbysUZH1ERDzH0DyfbQVQAAo0FT7K52GUoLKRgOtekGvo1nv0E/w19Gs9+gn+Gvo1nv0E/w19Gs9+gn+GpsDmLdN+WymRddNSK7wvfyHrvC9/Iehj70/wBh6tbB7WLfkPhv1dgFZX8TcescsDaqV7OZi8XeZe7S2tYy7NxPUo7SeqsFhLbBWK20PhMdDJIeLtzdK0rbC7a0sYNF13pe3sFfO8n5Q+KvneT8ofFQy8n5Y99TX0su8Tp76v2+ulHWx5bfieS2sL28YLbW80p/wjZv+xWJ+T3I3TB79hbR8SoIaQ/6FY3E2GJtxBaxBF6z5THtJ6/EfKAn/wAITdOkM6MdOw6r/uu/4vOb3V3/ABec/urv+Lzm91NkEAO7rrTOzsWY9JPL8llkHfI3Lpqu7FGCfiNCytAdRbw69oRf/KAAGgGnislZRZKwuLSX7E0ZQns14H2VfWVxjrua1nXdkicqw5yqzsqqpJJAAUakk1slhzhMJb2zj61gZJf3vxHs4eMNbbbIfPkXfdooF5GvSPzFH8EVLFJBI0cisjqxVlI0II6iOZ2enhWw2xcsMkeUyMZVgNbeBhoRr5bj+B4/O7KYjPjeuIykwGgnTQP6j2itothbvBW8l0LuKaBRrwKvp6ukUG1GorZ3ZG92iXukU8MUQbQltS3uArBbD4jCMsrA3Nwp1EkgGin/ABHVQGg08R//2Q==;" vertex="1" parent="1">
          <mxGeometry x="-180" y="190" width="38.86" height="40" as="geometry" />
        </mxCell>
        <mxCell id="t9zuYAZWbqn-8ooPc9wu-14" value="" style="sketch=0;pointerEvents=1;shadow=0;dashed=0;html=1;strokeColor=none;fillColor=#DF8C42;labelPosition=center;verticalLabelPosition=bottom;verticalAlign=top;align=center;outlineConnect=0;shape=mxgraph.veeam2.microsoft_teams;" vertex="1" parent="1">
          <mxGeometry x="-180" y="306" width="30" height="34" as="geometry" />
        </mxCell>
        <mxCell id="t9zuYAZWbqn-8ooPc9wu-15" value="" style="shape=image;html=1;verticalAlign=top;verticalLabelPosition=bottom;labelBackgroundColor=#ffffff;imageAspect=0;aspect=fixed;image=https://cdn0.iconfinder.com/data/icons/logos-microsoft-office-365/128/Microsoft_Office-07-128.png" vertex="1" parent="1">
          <mxGeometry x="-180" y="120" width="30" height="30" as="geometry" />
        </mxCell>
        <mxCell id="t9zuYAZWbqn-8ooPc9wu-32" style="edgeStyle=orthogonalEdgeStyle;rounded=0;orthogonalLoop=1;jettySize=auto;html=1;entryX=0.5;entryY=1;entryDx=0;entryDy=0;dashed=1;startArrow=blockThin;startFill=1;strokeColor=#007FFF;" edge="1" parent="1" source="t9zuYAZWbqn-8ooPc9wu-16" target="t9zuYAZWbqn-8ooPc9wu-13">
          <mxGeometry relative="1" as="geometry" />
        </mxCell>
        <mxCell id="t9zuYAZWbqn-8ooPc9wu-33" style="edgeStyle=orthogonalEdgeStyle;rounded=0;orthogonalLoop=1;jettySize=auto;html=1;dashed=1;strokeColor=#007FFF;startArrow=blockThin;startFill=1;" edge="1" parent="1" source="t9zuYAZWbqn-8ooPc9wu-16" target="t9zuYAZWbqn-8ooPc9wu-14">
          <mxGeometry relative="1" as="geometry" />
        </mxCell>
        <mxCell id="t9zuYAZWbqn-8ooPc9wu-16" value="" style="shape=image;verticalLabelPosition=bottom;labelBackgroundColor=default;verticalAlign=top;aspect=fixed;imageAspect=0;image=data:image/jpeg,/9j/4AAQSkZJRgABAQAAAQABAAD/2wBDAAsJCQcJCQcJCQkJCwkJCQkJCQsJCwsMCwsLDA0QDBEODQ4MEhkSJRodJR0ZHxwpKRYlNzU2GioyPi0pMBk7IRP/2wBDAQcICAsJCxULCxUsHRkdLCwsLCwsLCwsLCwsLCwsLCwsLCwsLCwsLCwsLCwsLCwsLCwsLCwsLCwsLCwsLCwsLCz/wAARCAD4AbcDASIAAhEBAxEB/8QAHAABAAICAwEAAAAAAAAAAAAAAAIHAQYDBQgE/8QATRAAAQMBBQQBDQwIBQUAAAAAAAECAwQFBhESUQchMUETFBc0UlRhcYGRobHR4SI2QnR1kpOUs9LT8BYjJDIzU1XBFXJzlcJiZIOi8f/EABoBAQACAwEAAAAAAAAAAAAAAAAEBQECAwb/xAAmEQEAAgECBAcBAQAAAAAAAAAAAQIDBBEFE0FxEhQhIjFhkVEj/9oADAMBAAIRAxEAPwC2cztRmdqRAEsztRmdqRAEsztRmdqRAEsztRmdqRAEsztRmdqRAEsztRmdqRAEsztRmdqRAEsztRmdqRAEsztRmdqRAEsztRmdqRAEsztRmdqRAEsztRmdqRAEsztRmdqRAEsztRmdqRAEsztRmdqRAEsztRmdqRAEsztRmdqRAEsztRmdqRAEsztRmdqRAEsztRmdqRAEsztRmdqRAEsztRmdqRAEsztRmdqRAEsztRmdqRAEsztRmdqRAEsztRmdqRAEsztRmdqRAEsztQRAAAAAAAAAAAAAAAAAAAAAAAAAAAAAAAAAAAAAAAAAAAAAAAAAAAAAAAAAAAAAAAAAAAAAAAAAAAAAAAAAAAAAAAAAAAAAAAAAAAAAN/p/OBp15doFgXfdLSRY19px4tdTQPRIoHb0wnnwVEVNERV3cE4gblvGVV5Kee7U2jX1tJXtbXdQwKu6KzW9Cqf+VVWb/wBzWKi0LTq1V1VW1c7l3qtRPLKqrqqvcoHqlXRou97EXTO0xmi7dnz2nk1QB6yzRduz57Rmi7dnz2nk0Aess0Xbs+e0Zou3Z89p5NAHrLNF27PntGaLt2fPaeTQB6yzRduz57Rmi7dnz2nk0Aess0Xbs+e0k1WLwc1f8rkVfMeSzKKqYKiqi6oB60wXRTB5apbZt2hVHUdp2hTqi4/s9TNGi+FGuw8xuFj7Ur00CsZaKQ2nTIuDumRsNSiaMmiTD5zHAXqDorvXqsG8sKvs+ZW1EbUWeknwZURf9SJjgre+i+Rdx3oAAAAAAAAAAAAAAAAAAAAAAAAAAAAAAAAAAAAAAAAAAAAAAM/lPD4TB0t6Lbbd+w7StNMqzxxpDRtdhg6qmXIzdzRv7ztUaoGmbQr8yWe6WwbGmVtarcto1cbsHUzXJ/AiVPhqi+6ci+55b1xjpl2KqqrxXxkppZZ5ZppnukllkfLK965nve9Vc5zl1VeJAAAAAAAAAAAAAAAAAAAAAAA+ijq6uhqKeqpJ5IKmCRJIZYlVr2OTmip5058D0Bcq90N6KJ6TIyK1aNG9WxMwRsrF3JUQ478FXinJd3wkVfO52t37ZqrAtagtOnxXoJESeNF/jU7lRJIl8KcO/gvID0/+Vw3eYHHBPDUwU9TA9HwVEUc8L04Ojkaj2r5FOQAAAAAAAAAAAAAAAAAAAAAAAAAAAAAAAAAAAAAAAAAAABU22Cvdhd6y2uwb+02hM3V26GJfF+s8pbPtKL2sSukvPAzlBZNJGnjkml/uBX4AAAAAAAAAAAAAAAAAAAAAAABkwAPQmzeudXXUs5r3ZpKCWooHL3o3Z2J4muaniNwK02QS42RbkHKO0o5cP9WBrf8AiWWnAAAAAAAAAAAAAAAAAAAAAAAAAAAAAAAAAAAAAAAAAAAAHtKG2qe+uT5PovQ4vn2lDbVPfXJ8n0XocBogAAAAAAAAAAAAAAAAAAAAAAAAAAuPY92DeP43RfZyFolXbHuwbx/G6L7OQtEAAAAAAAAAAAAAAAAAAAAAAAAAAAAAAAAAAAAAAAAAAAHtKG2qe+uT5PovQ4vn2lDbVPfXJ8n0XocBogAAAAAAAAAAAAAAAAAAAAAAAAAAuPY92DeP43RfZyFolXbHuwbx/G6L7OQtEAAAAAAAAAAAAAAAAAAAAAAAAAAAAAAAAAAAAAAAAAAAHtKG2qe+uT5PovQ4vn2lDbVPfXJ8n0XocBohtdwbGorbvHSU1czpKSCGesmhXHCZIsEaxcF4YqirqiYczVDeNl1VT0166dsz0atXR1VLDmVERZVyyom/XKqJ38NQLfti0rp3So6Waro4YKeWbqeFlFRx4Z0ar8EYxERE3HQ9cvZ3/LqfqDfWd5e260V66Kko5Kx9IlNVdUo9kTZcy5HR5VRXJrqaX1m6X+vzfUW/jAdx1y9nf8up+oN9Zxy7Rdm07HRzU8skTkwcyWzo3tcmitcqph4jq+s1S/1+b6i38Yw7Y3BgqMvBIjuSuoGqnkSdF84GgXrnunU2p1RdqOaGjmhY6aGSPo446jM5qpC1VVUaqYLhqviTerpX6uVZFgWXZ9dT1DaunSZJ1jpI5Gvc6V70ej8cVxRU4p6MV0a9N1LTurVU8FW+OaGqa99LUwo5GSozBHtVrt6ObimO/mm/T77H2d3ptuzqS06R1AymqUesKVE8jZFRj3RquVkbuaLzAsXrm7Pf5FZ9Ri++Oubs97nrPqMX3zSetLfT+dZP1mb8Ez1pb5/z7I+sz/ggbsm0zZ8qonQVaJvxVaGNUTHcv7r8fNyNsls67luUUT5qGjq6Orgjlic+BuLopW52vjdgj0xRcUVFTjyKebskviqoi1FjonNeqKhcE4cOgLqsqjdZ9mWTQOekjqGho6Nz2oqNesETYlcmO/fhiB53fPHdq3rboo40npKevqqNyStb0qxQTOa1UcicfMvo26lnoayBk9Msb2O44MTMx2GOVzV34/nmaNeiRkt5LzyRq1zH2vaLmOauLXN6d+Cop8ln2jWWdKk1O/DHdJG7fHI3jg9unoI2bBGSN4+V7wvivlJ5eWN6T+w2m2bux1HSVVA1rKji+BNzJV55MeDvzu56jFS1MtSykZG7qh8nRJG7c7NouPnLDs21aO1I1dCuWZqfrYHKiub326p3zitWx6e0kSRqpDWsROjnTH3SpwbJ3tOaeDcsbFqLY/Zf9XWt4Ti1kRqdLMevSPif72lxWRYNNZzUlmRs1Y5N7lTFkSLxbEi+dT67QrrNsyFJalrFc5FWGFjWdJKqbtyrvRvf8m/j0X6QWpZsc9JaNMsldE1Ep5Xrgx7V3I+ReDk5ovP06xVVNRVTST1ErpZXqquc7zYJpobVw3yW8V59HPLxXT6TBGLTU2t9x8d/tK0K2W0KqWpkZGxX4NRkTUa1rWpgiar4VPkMrxME+IiI2h4697XtNrfMrj2Pdg3j+N0X2chaJV2x7sG8fxui+zkLRMtQAAAAAAAAAAAAAAAAAAAAAAAAAAAAAAAAAAAAAAAAAAPaUNtU99cnyfRehxfPtKG2qe+uT5PovQ4DRDLXOarXNVUc1UVqouCoqc0VDBt9xr00l2aysWupHT0NfHFHM6Jsbp4XxK5WPYj8EVPdORyZk135cFDr4L5X1gY1kdvWjlamCJJMsuCaYy4r5zl/Tm/X9drfLH90t1u0TZs9rVdV5V7V9n1KqneXLGqecz1wtmfdrP8Abav8ECof05v1/Xa3yx/dN52Z3jvLbFtWhTWnaNRVU8dlyTNbKjFRsqVELUcitai44K7n6DZuuFsz7tZ/ttX+CZTaPs6hRzoq52OkVBVNV2HhjRPOBr+2NP2K7S/91Wp4MY49xtmz7D9Druf6FR56mUqW/t8Ke9NRQR0UM0VBQJN0a1CNbLNLLlRz1a1VRETDBu9eeuCbrdC/VzLJu5Ytn11ovjq6aKVszEpat6Nc6Z8iJmjjVvBU5gdZfa/V7bGvJadm2fUwxUtM2k6Nq00MjsZKeOVVc6RqrxVTXOuff7u6n+p033Trr72pZ1s3ltW0bOlWaknbRpFIrJI1d0dNFG73MiI7cqKnDka2BuvXPv8Ad3U/1Om+6fNW7Qr9V0MkElqujilarHpSwU8D1ReOEkbEkTxOQ1MAZ48fCd1Y1hVFoubNLmiokXBX/Dkw3KkaL6fSqYHBY7bG6dZLUlc2KNGujjbG5zZX48Hq3FcE44YepdwS8N3Wo1ravBrURrUZTzYI1NyYJlQjZ8l49tImV7wvR6fJPN1OSIiOm8bz3fPWXfa3oqmx1Wmq4EblY1yo2RGpxzKu52uO5ee/jyWTb0NcqU1Tkirmrl3KiRzKnHKvBF7x0dtXikrEkpaLNFSLue/HCWfXNhwb3vWa8jnIqKi4Km9FTdgqaHOmC16f6T6pubimLSanfRx7esdJ7LNr7PpLQhWGpYm7+G9Ewlidq1U86flNCtOyayy5MJEzwPVUimaio1/eXRdUO7si8zGtbBajnYNTCOoaivdgnwZG8+8v5Ts5rduxURvhnn6SJ7cHMdBMqeXL5FOWPm4LeH1mEzV+Q4li5sXit/uYj9jr3V8vEH12gyz2VMiUEr5aZUarHSNVrkVURVbv37uB8hYxO8bvGXr4LTXffb+Lj2Pdg3j+N0X2chaJV2x7sG8fxui+zkLRMtAAAAAAAAAAAAAAAAAAAAAAAAAAAAAAAAAAAAAAAAAAAPaUNtU99cnyfRehxfPtKG2qe+uT5PovQ4DRAAAAAAAAAAAAAAAAAAAAAAAAAABcex7sG8fxui+zkLRKu2Pdg3j+N0X2chaIAAAAAAAAAAAAAAAAAAAAAAAAAAAAAAAAAAAAAAAAAAAPaUNtU99cnyfRehxfPtKL2sROjvPA/DdPZNHInikmj/sBX4AAAAAAAAAAAAAAAAAAAAAAAAAAuPY92DeP43RfZyFolabH4lSyLdn5SWlFEi9+KFrv+RZYAAAAAAAAAAAAAAAAAAAAAAAAAAAAAAAAAAAAAAAAAAACpdsFA7G71ptaqtVKmgmdyRyKk0SePGTyFtHSXqsRt4bCtGzW5eqHMSeic7g2qh90xMeSO/dcvJHYgeZgTljliklilY5ksT3xyMe1WuY9q5XNc1eCpzIAAAAAAAAAAAAAAAAAAAAAAAyhg7SwbHqretWz7Lp8UdUSp00iJikMDfdSSu8CY4d/BOYF37NqF1DdOz3Pblkr5qm0HIvHLI7o2L42tavjNxOOCCClgpqWnYjIKaGKCFicGxxtRjW+JEQ5AAAAAAAAAAAAAAAAAAAAAAAAAAAAAAAAAAAAAAAAAAAAGfTy8PgMACrtolx5ax094LHhV1Rlz2lSRtxdM1E7Iia34XbJz48UXNTi7lPWnt/+48DSry7PLCt58tXTL/h9pSKrnywsR0Ezk34zQ4pvXtmqi89/ACgAbbamz6+tmK9Vs51ZC1cEms1eqEd4I0Tpk8cZrE9LV0rslTTzwPxwVJ4nxqi6YPRAOEAAAAAAAAAAAAAAAAH2Utm2tXKiUVBW1Kr3NTyy974DVNvsjZhe20HMdXMisumVd76pWyTqm/8Acp41xx/zOaBpdJTVVZUU9LSwyT1E70jhiiRXPe9eCIiecv8AuTc+K69E+SoVklrVrW9WStwc2GNvukp4VXlj+8vNU0ah913Lo2DdmLCiidJVvblmrKlGvqJEXixuCYNb3k72KqqYmwAN/PDHnguO/wAKgAAAAAAAAAAAAAAAAAAAAAAAAAAAAAAAAAAAAAAAAAAAAAAAAADO8wuCpg5EVF5OTFPIoAHEtNRquK01Oq6rDH/dDHUtF3LT/Qxeo5gBw9S0XctP9DF6h1LRdy0/0MXqOYAcPUtF3LT/AEMXqHUtF3LT/Qxeo5gBw9S0XctP9DF6h1LRdy0/0MXqOYAcPUtF3LT/AEMXqHUtF3LT/Qxeo5gBw9S0XctP9DF6iTaelYuLKeBq6tiYi+VEOQAZx8Kd4wAAAAAAAAAAAAAAAAAAAAAAAAAAAAAAAAAAAAAAAAAAAAAAAAAAAAAAAAAAAAAAAAAAAAAAAAAAAAAAAAAAAAAAAAAAAAAAAAAAAAAAASyu0GV2gADK7QZXaAAMrtBldoAAyu0GV2gADK7QZXaAAMrtBldoAAyu0GV2gADK7QZXaAAMrtBldoAAyu0GV2gADK7QZXaAAMrtBldoAAyu0GV2gADK7QZXaAAMrtBldoAAyu0GV2gADK7QZXaAAMrtBldoAAyu0GV2gADK7QZXaAAMrtBldoAAyu0GV2gADK7QZXaAAMrtBldoAAyu0GV2gADK7QZXaAAMrtBldoAAyu0AAH//2Q==;" vertex="1" parent="1">
          <mxGeometry x="-130" y="250" width="70.81" height="40" as="geometry" />
        </mxCell>
        <mxCell id="t9zuYAZWbqn-8ooPc9wu-34" style="edgeStyle=orthogonalEdgeStyle;rounded=0;orthogonalLoop=1;jettySize=auto;html=1;entryX=0;entryY=0.5;entryDx=0;entryDy=0;startArrow=blockThin;startFill=1;dashed=1;strokeColor=#007FFF;" edge="1" parent="1" source="t9zuYAZWbqn-8ooPc9wu-17" target="t9zuYAZWbqn-8ooPc9wu-13">
          <mxGeometry relative="1" as="geometry" />
        </mxCell>
        <mxCell id="t9zuYAZWbqn-8ooPc9wu-17" value="" style="verticalLabelPosition=bottom;sketch=0;html=1;fillColor=#A153A0;strokeColor=#ffffff;verticalAlign=top;align=center;points=[[0,0.5,0],[0.125,0.25,0],[0.25,0,0],[0.5,0,0],[0.75,0,0],[0.875,0.25,0],[1,0.5,0],[0.875,0.75,0],[0.75,1,0],[0.5,1,0],[0.125,0.75,0]];pointerEvents=1;shape=mxgraph.cisco_safe.compositeIcon;bgIcon=ellipse;resIcon=mxgraph.cisco_safe.design.users;" vertex="1" parent="1">
          <mxGeometry x="-320" y="230" width="40" height="45" as="geometry" />
        </mxCell>
        <mxCell id="t9zuYAZWbqn-8ooPc9wu-22" style="edgeStyle=orthogonalEdgeStyle;rounded=0;orthogonalLoop=1;jettySize=auto;html=1;startArrow=blockThin;startFill=1;dashed=1;strokeColor=#EA6B66;" edge="1" parent="1" source="t9zuYAZWbqn-8ooPc9wu-21" target="t9zuYAZWbqn-8ooPc9wu-6">
          <mxGeometry relative="1" as="geometry" />
        </mxCell>
        <mxCell id="t9zuYAZWbqn-8ooPc9wu-36" style="edgeStyle=orthogonalEdgeStyle;rounded=0;orthogonalLoop=1;jettySize=auto;html=1;startArrow=blockThin;startFill=1;strokeColor=#EA6B66;dashed=1;" edge="1" parent="1" source="t9zuYAZWbqn-8ooPc9wu-21" target="t9zuYAZWbqn-8ooPc9wu-14">
          <mxGeometry relative="1" as="geometry" />
        </mxCell>
        <mxCell id="t9zuYAZWbqn-8ooPc9wu-21" value="" style="shape=image;verticalLabelPosition=bottom;labelBackgroundColor=default;verticalAlign=top;aspect=fixed;imageAspect=0;image=data:image/jpeg,/9j/4AAQSkZJRgABAQAAAQABAAD/2wBDAAsJCQcJCQcJCQkJCwkJCQkJCQsJCwsMCwsLDA0QDBEODQ4MEhkSJRodJR0ZHxwpKRYlNzU2GioyPi0pMBk7IRP/2wBDAQcICAsJCxULCxUsHRkdLCwsLCwsLCwsLCwsLCwsLCwsLCwsLCwsLCwsLCwsLCwsLCwsLCwsLCwsLCwsLCwsLCz/wAARCAEdAXsDASIAAhEBAxEB/8QAGwABAAIDAQEAAAAAAAAAAAAAAAYHAQMFBAL/xABNEAABAwIBAwwPBwIDCQAAAAAAAQIDBBEFEiExBgcTQVFSU2GBlNHSFSIlMjM0NVVxc3WSk7G0FIKRobLB8CNyQlRiJENEY3Sis8Px/8QAGwEBAAIDAQEAAAAAAAAAAAAAAAEFAgMGBAf/xAAzEQEAAgECAgcHAwUBAQAAAAAAAQIDBBEFMRITIUFRUnEUFTIzgZGhIjRCBmHR4fAksf/aAAwDAQACEQMRAD8A54APp75oAAAAAAAAAAAAAAAAAAAAAAAAAAAAAAAAAAAAAAAAAAAAAAAAAAAAAAAAAAAAYAyAAAAAAAAAAAAAAAAAAAAAAAAAAAAAAAAAAAAAAAAAAAAAAAAAAAAAAAAAAAAAAAAAAAAAAAAAAAAAAAAAAAAAAAAAAAAAAAAAAAAAAAAAAAAAAAAAAAAAAAAAAAAAAAAAAAAAAAAAAAAAAAAAAAAAACy513M67iJxqCI3AaXVVGxbOqIr7iLf80zGxj45Eyo3tem61UX8jCuSlp2iYZzjvWN5jsfQGfP/AD8AZsAABAAAkA0hcyK5VRrU0q5URE5VzCewjt7IAaVq6FFyftMV+W342sbWq1yZTXNc3daqKn4oYVyVtO1ZhnbHesb2iY+jIAM2AAAAAAAAAAAAAAAAAAAAAAAAAAAAAAAAAAAAAAAAAAAFtBx62qfNI6Jl9ha7JajLqsrr5N+g7C3Rr1TSjHqnpyTi4YjFraTKz2bI5qLv0Zdv7lHxnUWw4v0/9stuHVrWuTPaN5pG7dHhFY9qK6SGNVS+QuU5zf7lbmRTzviq6GZL9o/MrXM7yRv80klz6EOfi7WrSNc7vmzx7Hu3cnbIn7nEabXZLZoi3f4dzHScXzZ88YssRNbd2z6p5m1ELJUzXujk3rkzKiH258TFRHyRscqoiI9yIq34lPFhSrk1CbSSsX0uyLqct6uc+RZLq9XLl5SXVFuum+0d5bX2pgpkmN5lvpw6uTU3pE9lUj/e1uP0Hy58THIx0kbXr/hV6I7lQ82HPkWlvpVHSpEt1zojbpn9Og4y3cqudncq3kVdN9u6mefX9XjreK82Gm4b1uW+O1vhSWy/z8rHwr4muyHSRo7eq9L/AIHlpHzfYMtc8iRzbFfSqJ3q5jjZl7Z3ErlXSq7aqu6RqNf1Va2ivM0vDeuves2+Hs+viky2aiq5bI1Fc5d6iJdVOHPPUVszWMa5WudkwQs3N1U/NVPdlSrhT3PVctYEvfTkq+2fkPjBEYtTUuW2W2nTY91t32cqfIr+M622PFE13223XH9PcPrm1HQvPb0tv8zAmC1mTdZqdr95234K5M35HjRaqgnVrmqx7bZca969q7abXKSrazW9HEcbHWttRPsmyKszU42Ja119Jx+g4lmtnis9/h3PoPGOCabFpbXp3c9533/29LHtlYyRnePajm+hT6PJhy3pGX0JJMjb7mWp6z6hhvOTHW898Pimoxxiy2pHdIADa0gAAAAAAAAAAAAAAABgyAAAAAAAAAAAAAAAAAAAAAABfPe22cSphko5stiqjMvLhkRO9W+jk0HbMOa17XNe1HNcllRyXS3oPHq9LGopt3vbo9VOmtPZvE84eOPGbNTZqdXSImdY3o1HLuqipmPDVVdRWyMRWWRO1hiZddObTpVd1TFdHHBUSsiajWoxjkbpRFVl10nWp4IIWNdFGjXOYxXOzq5boiql1z2OY0vCcc5rVjs25/6W1o0ujrGopTttyYpIFp4Wsct5FVXyKm/Xa5DMlLSSuy5IWK7bXOl/TZTddQdbGGkV6ER2RyUU57zecm87z4MIiNREaiIiIiIiJZERNpENL6SjkflvhYrlXPpRF9KIpvBnalbdkwwrkvWd4mRLJZEREREREREsiInEaFo6Jz9kWBiuvfbtfdtexvAnHS3OCuS9e2LSwrWva9jkTIcxWqm1ZcxxP9poKhrmraRi9o5U7R7eM7mc+XxxyNyJGNe3ccl/wPFrdFXVV25f4WHD+IX0V+nHa0JjjMntqR2XxSpkX07aZRzJpqvEKhFVMqRyI1jWp2kbNOjcPiWNiVMkSIqMbU7GiXW6NWTJtfSdyOGGDKbDG1iZS3ydK2XbdpOc4fwfH07dDs2ntddxT+odRbDWmSd9+2I7vWSKJsMUUTVukbURF3y3uruU+wDsaxFY2h8/tabTNrc5AAZIAAAAAAAAAAAAAAAADBkAAAAAAAAAAAAAAAAAADNkAwDNhYjcYAsCRxcU8am9VF/40OxH4OP1cf6UOPid/tM2jwUXFmyEOyxLRxerjzfdQqdH+4yLvXx/5sMMgzYxYtVGAzYWJ7BgGbGLDsACxnMOaXBm8dl/63/2od1dLv7l+Zw5/Hpdz7buZ/C32jurpd6V+ZU8O+K/qu+Jx+nH6MAWFi1UYDNjBKQABAAAkAAAAAAAAAAAAAAAAAAAAAAAAAAAAAD5kkSKOWVUukbHPVN2yaD6NNV4rV+od80NeSZikzDZijpXiJ8XK+04lO9djWre6yuWOkZK/JZdEvkxJe21c+u7fA4vzes6pI9b5VTG8RVFVF7DyZ0VUXxqDcLRbszkzPfmzZ5HdJxV9Tk3nefy7nqcVf0xWFF92+Bxfm9Z1R3b4HF+b1nVL1tUb9/xHdIyajfu+I4w9pv4/lPU4++sKGfBicjlfJR4m9y2RXPpKpVzJbSrDYiY0lkSDF0REsiJT1lkS1s3al65NRv3fEd0jJqd+74jukxjPaJ3hlNazG0woru3wOL83rOqO7fA4vzes6petqnfv+I7pFqnfu+I7pMvar+P5Y9TTyx9lFd2+Bxfm9Z1R3b4HF+b1nVL1yanfu+I7pFqnfu+I7pJ9qv4/k6qnlj7KK7t8Di/N6zqju3wOL83rOqXrap37viO6Rk1O/d8R3SPar+P5Oqp5Y+yiu7fA4vzes6o7t8Di/N6zql65NTv3fEd0i1Tv3/Ed0ke1ZO6fyjqaT/H8KGWDElcr1osSV6uyspaOqysq973yDZ3b4HF+b1nVL1yanfu+I7pGTUb93xHGMZ7V+FnalbfFXdRXdvgcX5vWdUd2+Bxfm9Z1S9cmo37viOGTU793xHdJn7Vfx/LHqsflhRD34tGiPlTEY2ZSJlVDKiONXWVUS8rcnk4jpUU7qiJXP8ACMesb1RLIq2ui2JvrgpImA02WqrfF6VM7lX/AHE67ZAsK8FUeub+hC04ZnyXy7WndWcUw44wdOK7S94AOncoAAAAAAAAAAAAAAAAAAAAAAAAAAAAAAAAGqq8Vq/Uu+aGw1VXitX6l3zQ1Zvgn0ltwfMr6w9+t95bxH2M/wCqgLWh71f7l+RVOt95bxH2M/6qAtWHvfvL8jgsnN3082wAGpl3gI7jmq7BMDc6ner6zEGomVS0qt/pLmt9omd2rb7mdeIiUuuRjiuVYMOwuGNVXJbOtRO+21dyKxPyMopae2IN423WeCuaPXIqEejcTwqJY1VqLJh8qte1FzX2KfMvI8nOHYphmL06VWH1DZor5L0ztkifa+RLG7tkd6SLVmvOEvaACAANcssFPFLPPLHFBCxZJpZnIyNjE23OUgbAQTEtcWiie+LCaF9Xa6JU1b3QQOstrsjaiyKm4qohyE1x9UOUt6HB3JvEbUNdbjflr+k2RjtPcjePFaQIZhWuBhFY9kGJQOw2V6ta2V0my0avXadJZHN5W24yZIqKiKmhbKllullzpZUzGExMdkpZAAEO1xfINJ7Zpfp5yv8ACvBVHrm/oQsDXF8g0ntml+nnK/wrwVR65v6ELjhPzo+qq4r+2n6PeADr3GgACQAAAAAAAAAAADAGQAAAAAAAAAAAAAAADVVeK1fqXfNDaaqrxWr9S75oas3wW9JbcHzK+sPdrfeW8Q9jP+qgLVi737y/IqrW+8t4j7Gf9VAWrF3v3l+RwWTm76fibCMassfkwTD4oqV6txHEVkipnp/w8TLbLPn20ujWZtKpuEn3SodcGqkfqgqmXzUOH0kMKWsmU9rqhy8qqn4GFI3t2svRz8EwOfGZJppJZIaGKRWzzp209ROq3cyJzr59+9dF7Z10TSl1OYBFkxQ4VDNJZLumYtRM7aynPkW/yQ9GG0sVDh+HUsSIjYKaJF/1Pc1HvcvpVVUkmCpHsVQubZFls7dyEamTf8z59m12fi2unBXJNaRM7bT4f5XVcVNPii3R3lCsS1I4XI1yR0y4dVK1XMdEi7C53/MiurFTdVLekiNJWYvqWxd0jUVJ6dyR1lPlLsVZTO7aybSo5M7F3U4rLdOLbH9kcr7ZSSR7H/dfP+VytNWdMzYcLrUT+o2aWjkXfMc1ZmIvoVHe8XGi1WXSa+NDkv0625b84/7Z5stK5MU5axtMLNpKmmraWlrKZ6Pp6mGOeF+bPHImUl7be0vGhuIjre1D5tTqROcq/YsQraaO+1Gqtman/cpLjp9tp2VwiKuZNtUTc0lR6tdUMmKV8tBTveuG0EyxNYzP9rq2uRjpFTbsvax8u+zWliNQ+kw/FKpi2fTUNXOy2/ZE5W/mU3qWpmVOMUSyojm0sE1dZ23K1GsYvIrldyGvLmrp8V89v4xMs6Um9orHe7WE6kadsbJ8YR0szkR32Rr3NghRU72VzbOc7dzoma2fSsgbqbweeJUZgdI+FMyOZTtZf0ORUdyoexbLe9rXS/oVSWx7HsbEZbIyURltGTbNY4LRX1HF818mTLNYjuiVvlimniK1rEqexvUs2mikq8N2V0MTXOqaWVct8bG986Jzu2VE0uRb6L32l6eoLVBK2duA1T1fDKySTC3vVVWN7P6j6e658lU7ZnoXazJL8S2Nta5WZK2bGsl9Cvz3ReS1ypqpq4PqgXYLomH4xTywo3SkazMdke65WnRcG1uXLfLo89ulNOUvHqcUVrXJWNt15pnBldK20XUwX7xIdrieQaT2zS/Tzlf4V4Ko9c39CFga4nkGk9s0v085X+FeCqPXN/QhccJ+dH1VXFv20/R7wAde40AASAAAAAAAAAAAAAAAAAAAAAAAAAAAAAMGqq8Vq/Uu+aG41VXitX6l3zQ1Zvgn0ltwfMr6w92t95bxH2M/6qAtWLvfvL8iqtb7y3iPsZ/1UBasXe/eX5HBZObvv5NhU2uFRvixxZ1ytjxHD4XNduSQZVO9vJ2q8pbJwtU+BMx7DlgYrGVlM9aigkfdGpLbJdE9U/wvTMvIu0YVna3ay9HGwetZX4ZQ1LVTLWJsE6bbJ4mox7V/C50GSSxuy4nuY7RlNWy9BWdDiGK6nq2phfC5j2uRldRVSKzKydC3bnRU/wALkvm3UWxLINV2AyNRZkrad9s7HQJK2+3Z8LvmiKfOeJcD1WDPOXTVmazO8bc4XmHVY7V6OSUhlmmmVFlke9WpdMpbonoQhurSrYrsOw5qor4VkrKnRdiyN2ONi8apd34bpurtWNM1jo8MppZJlRUbPWRtZExV22wXcqqnHb9l4mA4HiGqjEJFe6VaLZtkxaveqqr7rd0Eb176R2dF3qZ81kR1lwPg+opqI1mriY25b85lp1WopNJx41g6gaWSn1OU0siWdX1VXXoiot9jkcjGad1G35SVnxFHHDHFFExscUMbIoo25msjYiNa1voSyH2dlvv2qp562mSso6+kvb7XSVNNfcWWNWIv42KW1PVXY7F6Nan+m1zZcPqFdojdIrWorr7jmoi+kvErHVxqamhqKjG6KFX0tSqvxKKNt3U8ypZ09kTvH6X5lsvEt0wyYq58V8N+Vo2ZUtNbRaO5J1SyqipnS7VTcXcU2x1FVE1WRzSMbvUdm5NsgWEarJKWKKmr45KmBjUZDUQqizsjalka9HqjXIm0t0Xaz7XcXVZqbRmVsta5dOxtpHo+/pkcjeW58zzcG4jpMvRx0mf7wva6nDkje0w7iqxMuSV6NjY10s0j1TtWNRXue5V3CtESTHtUMKRovdTGIXNTeQMkbIqr6GMvynpxvVNPiMT6aGP7LQOVuyMV2XPUqjrtSVyJa2izUvfjtZJdqG1NVNDl4ziULoqyeJYaGnkS0lLTPVHOklRdEj82bSiJbbsnXcB4Xk0FbZs8bXt3K/V54y7VpyhO1VFVVTQqrb0AIDoXgQ7XE8g0ntml+nnK/wAK8FUeub+hCwNcTyDSe2aX6ecr/CvBVHrm/oQuOE/Oj6qri37afo94AOvcaAAJAAAAAAAAAAAMGQAAAAAAAAAAAAAAAAANVV4rV+pd80NpqqvFav1LvmhqzfBPpLbg+ZX1h7tb7y3iPsZ/1UBasXe/eX5FVa33lvEfYz/qoC1Yu9+8vyOCyc3fT8TYNIBqZd7l4tgOC42xrcQpmyPYipFPG5YqiLiZIzPbiW6cRFJtbSiVzlp8ZrY2KuZs9PBOqJuZd2qT8ExMxykQij1uMChcjq6rrq+y32N7mU0Dk3HMg7ZU+8TKCnpqWGKnpoY4aeFuRFFCxrI2N02a1ub+cptAmZnmkABCAxn2vR/94t0yCNhFcT1C6m8QfJNCyagnfdzn0Dmtic5Vvd0Dk2O/oscdNbODK7bHapWbjKKnR/vK5U/IsIyZdK0d4jmD6j9TuDyx1MUMlTWR52VVc/ZpWLtrC2yMbyJfjJFYAid5SAAIQ7XE8g0ntml+nnK/wrwVR65v6ELA1xfINJ7Zpfp5yv8ACvBVHrm/oQuOE/Oj6qvi37afo94AOvcaAAJAAAAAAAAAAAAAAAAAAAAAAAAAAAAAA1VXitX6l3zQ2mHtbIx8bu9e1WrbcXbNeSs2pMQzxz0bxM+L0agZIosZxB80sUTFwl7EdNIyNqu+0wOyUV6ol8ylnx12GtaqLX0Cdsq+NwdYpF+GVV1REjkZftXK5EW3+pHJY+OxlVwEHvR9Bx19DmmZ/TP2dtGt089vThenZDC/OGH87g6w7IYX5ww/ncHWKK7GVfAQe9H0DsZV8BB70fQa/YM3ln7MvbNP54Xr2Qwvzhh/O4OsOyOF/wCfoOdwdYorsXVcBB70fQaZqV1O9rJYokc5qPSyMXtVVU2k4jG+jy0je0T9mdNThyT0aW3lffZHC/OFBzuDrDshhfnDD+dwdYoHIj3jPdb0DIj3jPdb0Grqf7t+6/uyOF+cMP53B1h2Rwvzhh/O4OsUDkR7xnut6BkR7xnut6B1M+Iv7sjhfnDD+dwdYdkML84YfzuDrFA5Ee8Z7regZEe8Z7regdTPiL+7I4X5ww/ncHWHZHC/OFBzuDrFA5Ee8Z7regy2Jr3xsbHGrnuRjbtamdeQdRPcTaI5r97IYX5ww/ncHWHZDC/OGH87g6xRXYuq4CD8Y+gdjKvgIPej6D0ewZvLP2eX2zT+eF69kML84YfzuDrDshhfnDD+dwdYorsZV8BB70fQOxdVwEHvR9BHsGbyz9j23T+eFj64FVRT4JSsgqqWV6YtTPVsM8UjkakEyKtmqq2ILhXgqjT4Zv6EPGmGVid7FC2+lUc1E5cltzq01O2miRmVlOVyve61kVy7nFuFrw3SZMWXe8beqr4nqsN8PQpbeZ8G4AHSOYAAAAAAAAAAAAAAAAAAAAAAAAAAAAAAAAAAAAAAADcDwYjTSyrHNG1Xqxqse1O+te6Kifie8GnPhrnp0LN+nz20+TrKo/sFV/l5/hu6BsNTwE3w3dBILmb/AMupV+6aR/L/AOLf31fyx+Ue2Gp4Cb4bugbDU8BN8N3QSG/8uov/AC6j3TTzT+D31fyx+Ue2Gp4Cb4bugbDU8BN8N3QSG/8ALqL/AMuo90080/g99X8sflHthqeAn+G7oPTR0s7po5JI3xsidlqr0yVcqaEainXuLmePhmOlulM7teXi+TJToxWIF/YBf2Bb7+CkAAN0lwAEAAAAAJAAAAAAAAAAAAMAZAAAAAAAAAAAAAAAAAAAAAAAAAAAAAAAEAAAAAJAAAAAAAAAAAAAAAAAAAAAAAAADAGQAAAAAAAAAAAAAAAAAAAAAAAAAAAAAAAAAAAAAAAAAAAAAAAAAAAAAAAAAAAAAAAAAAAAAAAAAAAAAAAAAAAAAAAAAAAAAAAAAAAAAAAAAAAAAAAAAAAAAAAAAAAAAAAAAAAAAAAAAAAAAAAAAAAAAAAAAAAAAAAAAAAAAAAAAAAAAAAAAAAAAAAAAAAAAAAf/9k=;" vertex="1" parent="1">
          <mxGeometry x="110" y="340" width="53.19" height="40" as="geometry" />
        </mxCell>
        <mxCell id="t9zuYAZWbqn-8ooPc9wu-26" style="edgeStyle=orthogonalEdgeStyle;rounded=0;orthogonalLoop=1;jettySize=auto;html=1;entryX=0.515;entryY=0.985;entryDx=0;entryDy=0;entryPerimeter=0;strokeColor=#007FFF;startArrow=blockThin;startFill=1;dashed=1;" edge="1" parent="1" source="t9zuYAZWbqn-8ooPc9wu-14" target="t9zuYAZWbqn-8ooPc9wu-6">
          <mxGeometry relative="1" as="geometry">
            <Array as="points">
              <mxPoint x="-20" y="320" />
              <mxPoint x="-20" y="402" />
              <mxPoint x="363" y="402" />
            </Array>
          </mxGeometry>
        </mxCell>
        <mxCell id="t9zuYAZWbqn-8ooPc9wu-27" style="edgeStyle=orthogonalEdgeStyle;rounded=0;orthogonalLoop=1;jettySize=auto;html=1;entryX=0.02;entryY=0.678;entryDx=0;entryDy=0;entryPerimeter=0;strokeColor=#007FFF;startArrow=blockThin;startFill=1;dashed=1;" edge="1" parent="1" source="t9zuYAZWbqn-8ooPc9wu-15" target="t9zuYAZWbqn-8ooPc9wu-4">
          <mxGeometry relative="1" as="geometry" />
        </mxCell>
        <mxCell id="t9zuYAZWbqn-8ooPc9wu-31" style="edgeStyle=orthogonalEdgeStyle;rounded=0;orthogonalLoop=1;jettySize=auto;html=1;entryX=0.648;entryY=0.118;entryDx=0;entryDy=0;entryPerimeter=0;strokeColor=#007FFF;startArrow=blockThin;startFill=1;dashed=1;" edge="1" parent="1" source="t9zuYAZWbqn-8ooPc9wu-13" target="t9zuYAZWbqn-8ooPc9wu-14">
          <mxGeometry relative="1" as="geometry">
            <Array as="points">
              <mxPoint x="-170" y="270" />
              <mxPoint x="-161" y="270" />
            </Array>
          </mxGeometry>
        </mxCell>
        <mxCell id="t9zuYAZWbqn-8ooPc9wu-35" style="edgeStyle=orthogonalEdgeStyle;rounded=0;orthogonalLoop=1;jettySize=auto;html=1;entryX=1;entryY=0.5;entryDx=0;entryDy=0;entryPerimeter=0;dashed=1;startArrow=blockThin;startFill=1;strokeColor=#007FFF;" edge="1" parent="1" source="t9zuYAZWbqn-8ooPc9wu-14" target="t9zuYAZWbqn-8ooPc9wu-17">
          <mxGeometry relative="1" as="geometry" />
        </mxCell>
        <mxCell id="t9zuYAZWbqn-8ooPc9wu-38" style="edgeStyle=orthogonalEdgeStyle;rounded=0;orthogonalLoop=1;jettySize=auto;html=1;entryX=0.375;entryY=1;entryDx=0;entryDy=0;entryPerimeter=0;dashed=1;startArrow=blockThin;startFill=1;strokeColor=#EA6B66;" edge="1" parent="1" source="t9zuYAZWbqn-8ooPc9wu-6" target="t9zuYAZWbqn-8ooPc9wu-1">
          <mxGeometry relative="1" as="geometry" />
        </mxCell>
        <mxCell id="t9zuYAZWbqn-8ooPc9wu-39" value="" style="rounded=0;whiteSpace=wrap;html=1;fillColor=none;strokeColor=#6c8ebf;dashed=1;strokeWidth=0.8;" vertex="1" parent="1">
          <mxGeometry x="500" y="135" width="190" height="305" as="geometry" />
        </mxCell>
        <mxCell id="t9zuYAZWbqn-8ooPc9wu-40" value="" style="rounded=0;whiteSpace=wrap;html=1;strokeWidth=0.8;strokeColor=#6c8ebf;fillColor=none;shadow=0;glass=1;fillStyle=hatch;gradientColor=none;" vertex="1" parent="1">
          <mxGeometry x="290" y="90" width="450" height="380" as="geometry" />
        </mxCell>
        <mxCell id="t9zuYAZWbqn-8ooPc9wu-41" value="" style="verticalLabelPosition=bottom;html=1;verticalAlign=top;align=center;strokeColor=none;fillColor=#00BEF2;shape=mxgraph.azure.azure_subscription;" vertex="1" parent="1">
          <mxGeometry x="310" y="70" width="50" height="35" as="geometry" />
        </mxCell>
        <mxCell id="t9zuYAZWbqn-8ooPc9wu-42" value="teamBot" style="text;strokeColor=none;align=center;fillColor=none;html=1;verticalAlign=middle;whiteSpace=wrap;rounded=0;" vertex="1" parent="1">
          <mxGeometry x="98" y="377" width="60" height="30" as="geometry" />
        </mxCell>
        <mxCell id="t9zuYAZWbqn-8ooPc9wu-43" value="msTeams" style="text;strokeColor=none;align=center;fillColor=none;html=1;verticalAlign=middle;whiteSpace=wrap;rounded=0;" vertex="1" parent="1">
          <mxGeometry x="-195" y="350" width="60" height="30" as="geometry" />
        </mxCell>
        <mxCell id="t9zuYAZWbqn-8ooPc9wu-44" value="sharePoint" style="text;strokeColor=none;align=center;fillColor=none;html=1;verticalAlign=middle;whiteSpace=wrap;rounded=0;" vertex="1" parent="1">
          <mxGeometry x="-153" y="220" width="60" height="30" as="geometry" />
        </mxCell>
        <mxCell id="t9zuYAZWbqn-8ooPc9wu-45" value="outlook" style="text;strokeColor=none;align=center;fillColor=none;html=1;verticalAlign=middle;whiteSpace=wrap;rounded=0;" vertex="1" parent="1">
          <mxGeometry x="-190.57" y="141" width="60" height="30" as="geometry" />
        </mxCell>
        <mxCell id="t9zuYAZWbqn-8ooPc9wu-46" value="SP-SPX" style="text;strokeColor=none;align=center;fillColor=none;html=1;verticalAlign=middle;whiteSpace=wrap;rounded=0;" vertex="1" parent="1">
          <mxGeometry x="-119.19" y="278" width="60" height="30" as="geometry" />
        </mxCell>
        <mxCell id="t9zuYAZWbqn-8ooPc9wu-47" value="users" style="text;strokeColor=none;align=center;fillColor=none;html=1;verticalAlign=middle;whiteSpace=wrap;rounded=0;" vertex="1" parent="1">
          <mxGeometry x="-333" y="272.5" width="60" height="30" as="geometry" />
        </mxCell>
        <mxCell id="t9zuYAZWbqn-8ooPc9wu-48" value="&lt;b&gt;&lt;font style=&quot;font-size: 30px;&quot;&gt;Connectivity Diagram&lt;/font&gt;&lt;/b&gt;" style="text;strokeColor=none;align=center;fillColor=none;html=1;verticalAlign=middle;whiteSpace=wrap;rounded=0;strokeWidth=6;" vertex="1" parent="1">
          <mxGeometry x="-8" y="21" width="483" height="30" as="geometry" />
        </mxCell>
        <mxCell id="t9zuYAZWbqn-8ooPc9wu-49" value="" style="rounded=0;whiteSpace=wrap;html=1;fillColor=none;strokeColor=#B5739D;" vertex="1" parent="1">
          <mxGeometry x="-251" y="96" width="218" height="352" as="geometry" />
        </mxCell>
      </root>
    </mxGraphModel>
  </diagram>
</mxfile>
